<?xml version="1.0" encoding="utf-8"?>
<!-- Generator: Adobe Illustrator 20.1.0, SVG Export Plug-In . SVG Version: 6.00 Build 0)  -->
<svg version="1.1" id="圖層_1" xmlns="http://www.w3.org/2000/svg" xmlns:xlink="http://www.w3.org/1999/xlink" x="0px" y="0px"
	 viewBox="0 0 1133.9 201.1" style="enable-background:new 0 0 1133.9 201.1;" xml:space="preserve">
<style type="text/css">
	.st0{fill:#F6CD61;stroke:#F6CD61;stroke-linecap:round;stroke-linejoin:round;stroke-miterlimit:10;}
	.st1{fill:none;stroke:#232323;stroke-width:4;stroke-linecap:round;stroke-linejoin:round;stroke-miterlimit:10;}
	.st2{fill:#232323;}
	.st3{fill:none;stroke:#232323;stroke-width:4;stroke-miterlimit:10;}
</style>
<polygon class="st0" points="150.5,25.9 89.5,65.6 89.5,87.2 195.4,158.7 211.5,144.9 211.5,65.6 "/>
<polygon class="st1" points="116.5,24.3 39,69.2 39,93.7 167.3,174.7 194,159.1 194,69.2 "/>
<g>
	<g>
		<path class="st2" d="M308.6,38.5c0,4.7-0.9,7.9-2.7,9.6c-1.8,1.7-5.1,2.5-9.8,2.5c-4.7,0-7.9-0.8-9.6-2.5
			c-1.7-1.7-2.6-4.8-2.6-9.4c0-4.7,0.9-7.9,2.7-9.6c1.8-1.7,5-2.5,9.8-2.5c4.7,0,7.9,0.8,9.6,2.5C307.7,30.7,308.6,33.9,308.6,38.5z
			 M306.3,184.4c0,0.6-0.2,1.2-0.5,1.6c-0.3,0.4-0.8,0.8-1.6,1.1c-0.7,0.3-1.7,0.6-3,0.7c-1.3,0.2-2.9,0.2-5,0.2
			c-1.9,0-3.6-0.1-4.8-0.2c-1.3-0.2-2.3-0.4-3.1-0.7c-0.8-0.3-1.3-0.7-1.6-1.1c-0.3-0.4-0.4-1-0.4-1.6V75.3c0-0.6,0.1-1.1,0.4-1.6
			c0.3-0.5,0.8-0.9,1.6-1.2c0.8-0.3,1.8-0.6,3.1-0.7c1.3-0.2,2.9-0.2,4.8-0.2c2,0,3.7,0.1,5,0.2c1.3,0.2,2.3,0.4,3,0.7
			c0.7,0.3,1.3,0.7,1.6,1.2c0.3,0.5,0.5,1,0.5,1.6V184.4z"/>
		<path class="st2" d="M437.2,184.4c0,0.6-0.2,1.2-0.5,1.6c-0.3,0.4-0.8,0.8-1.6,1.1c-0.7,0.3-1.7,0.6-3,0.7
			c-1.3,0.2-2.9,0.2-4.8,0.2c-2,0-3.7-0.1-5-0.2c-1.3-0.2-2.3-0.4-3-0.7c-0.7-0.3-1.3-0.7-1.6-1.1c-0.3-0.4-0.5-1-0.5-1.6v-63.9
			c0-6.2-0.5-11.2-1.5-15c-1-3.8-2.4-7.1-4.2-9.8c-1.9-2.7-4.3-4.8-7.2-6.3c-3-1.5-6.4-2.2-10.2-2.2c-5,0-10,1.8-15,5.3
			c-5,3.6-10.3,8.8-15.8,15.6v76.2c0,0.6-0.2,1.2-0.5,1.6c-0.3,0.4-0.8,0.8-1.6,1.1c-0.7,0.3-1.7,0.6-3,0.7c-1.3,0.2-2.9,0.2-5,0.2
			c-1.9,0-3.6-0.1-4.8-0.2c-1.3-0.2-2.3-0.4-3.1-0.7c-0.8-0.3-1.3-0.7-1.6-1.1c-0.3-0.4-0.4-1-0.4-1.6V75.3c0-0.6,0.1-1.2,0.4-1.6
			c0.2-0.4,0.7-0.9,1.5-1.2c0.7-0.4,1.7-0.6,2.8-0.7c1.1-0.1,2.6-0.2,4.5-0.2c1.8,0,3.3,0.1,4.4,0.2c1.2,0.1,2.1,0.4,2.7,0.7
			c0.6,0.4,1.1,0.8,1.4,1.2c0.3,0.4,0.4,1,0.4,1.6v14.4c6.1-6.9,12.3-11.9,18.4-15.1c6.1-3.2,12.3-4.8,18.5-4.8
			c7.3,0,13.4,1.2,18.4,3.7c5,2.5,9,5.8,12.1,9.9c3.1,4.1,5.3,8.9,6.6,14.5c1.3,5.5,2,12.2,2,19.9V184.4z"/>
		<path class="st2" d="M594.5,178.8c0,1.6-0.3,3-0.8,4.1c-0.5,1.1-1.3,2.1-2.1,2.8c-0.9,0.7-1.9,1.3-2.9,1.6
			c-1.1,0.3-2.2,0.5-3.3,0.5h-6.9c-2.2,0-4.1-0.2-5.7-0.7c-1.6-0.4-3.2-1.3-4.6-2.4c-1.5-1.2-2.9-2.8-4.4-4.8c-1.5-2-3-4.6-4.7-7.8
			L511.2,83c-2.5-4.6-5-9.4-7.6-14.5c-2.5-5-4.9-10-7.1-14.7h-0.2c0.2,5.8,0.3,11.8,0.4,17.8c0.1,6.1,0.1,12.1,0.1,18.1v94.6
			c0,0.6-0.2,1.1-0.5,1.6c-0.3,0.5-0.9,0.9-1.7,1.2c-0.8,0.3-1.9,0.5-3.2,0.7c-1.3,0.2-3,0.3-5.1,0.3c-2,0-3.7-0.1-5.1-0.3
			c-1.3-0.2-2.4-0.4-3.1-0.7c-0.8-0.3-1.3-0.7-1.7-1.2c-0.3-0.5-0.5-1.1-0.5-1.6V39.6c0-3.2,0.9-5.5,2.8-6.9c1.8-1.4,3.8-2.1,6-2.1
			H495c2.4,0,4.4,0.2,6.1,0.6c1.6,0.4,3.1,1.1,4.4,2c1.3,0.9,2.5,2.2,3.8,3.9c1.2,1.7,2.5,3.7,3.8,6.2l36.8,68.8
			c2.3,4.2,4.4,8.3,6.6,12.3c2.1,4,4.1,7.9,6.1,11.8c2,3.9,3.9,7.7,5.8,11.5c1.9,3.8,3.8,7.5,5.7,11.3h0.1c-0.2-6.4-0.3-13-0.3-19.9
			c0-6.9-0.1-13.6-0.1-19.9V34.1c0-0.6,0.2-1.1,0.5-1.6c0.3-0.5,0.9-0.9,1.7-1.3c0.8-0.4,1.9-0.6,3.2-0.8c1.3-0.2,3-0.2,5.2-0.2
			c1.9,0,3.5,0.1,4.9,0.2c1.4,0.2,2.4,0.4,3.2,0.8c0.8,0.4,1.3,0.8,1.7,1.3c0.3,0.5,0.5,1,0.5,1.6V178.8z"/>
		<path class="st2" d="M723.4,178.8c0,1.5-0.1,2.7-0.2,3.8c-0.2,1.1-0.4,2-0.8,2.7c-0.4,0.7-0.9,1.3-1.4,1.6
			c-0.5,0.3-1.1,0.5-1.8,0.5h-75.2c-1.9,0-3.6-0.6-5.3-1.9c-1.7-1.3-2.5-3.5-2.5-6.6V39.1c0-3.2,0.8-5.4,2.5-6.6
			c1.7-1.3,3.4-1.9,5.3-1.9h74.4c0.6,0,1.2,0.2,1.8,0.5c0.5,0.3,0.9,0.8,1.3,1.6c0.3,0.7,0.6,1.6,0.8,2.7c0.2,1.1,0.3,2.4,0.3,4.1
			c0,1.5-0.1,2.7-0.3,3.8c-0.2,1.1-0.5,2-0.8,2.7c-0.3,0.7-0.7,1.2-1.3,1.5c-0.5,0.3-1.1,0.5-1.8,0.5H657v49.2h52.6
			c0.6,0,1.2,0.2,1.8,0.5c0.5,0.4,1,0.9,1.3,1.5c0.4,0.6,0.6,1.5,0.8,2.7c0.2,1.1,0.2,2.5,0.2,4c0,1.5-0.1,2.7-0.2,3.8
			c-0.2,1.1-0.4,1.9-0.8,2.5s-0.8,1.1-1.3,1.4c-0.5,0.3-1.1,0.4-1.8,0.4H657v56.1h62.2c0.6,0,1.2,0.2,1.8,0.5c0.5,0.3,1,0.8,1.4,1.5
			c0.4,0.7,0.7,1.6,0.8,2.7C723.3,175.8,723.4,177.2,723.4,178.8z"/>
		<path class="st2" d="M844.6,178.8c0,1.5-0.1,2.7-0.2,3.8c-0.2,1.1-0.4,2-0.8,2.7c-0.4,0.7-0.9,1.3-1.4,1.6
			c-0.5,0.3-1.1,0.5-1.8,0.5h-75.2c-1.9,0-3.6-0.6-5.3-1.9c-1.7-1.3-2.5-3.5-2.5-6.6V39.1c0-3.2,0.8-5.4,2.5-6.6
			c1.7-1.3,3.4-1.9,5.3-1.9h74.4c0.6,0,1.2,0.2,1.8,0.5c0.5,0.3,0.9,0.8,1.3,1.6c0.3,0.7,0.6,1.6,0.8,2.7c0.2,1.1,0.3,2.4,0.3,4.1
			c0,1.5-0.1,2.7-0.3,3.8c-0.2,1.1-0.5,2-0.8,2.7c-0.3,0.7-0.7,1.2-1.3,1.5c-0.5,0.3-1.1,0.5-1.8,0.5h-61.3v49.2h52.6
			c0.6,0,1.2,0.2,1.8,0.5c0.5,0.4,1,0.9,1.3,1.5c0.4,0.6,0.6,1.5,0.8,2.7c0.2,1.1,0.2,2.5,0.2,4c0,1.5-0.1,2.7-0.2,3.8
			c-0.2,1.1-0.4,1.9-0.8,2.5c-0.4,0.6-0.8,1.1-1.3,1.4c-0.5,0.3-1.1,0.4-1.8,0.4h-52.6v56.1h62.2c0.6,0,1.2,0.2,1.8,0.5
			c0.5,0.3,1,0.8,1.4,1.5c0.4,0.7,0.7,1.6,0.8,2.7C844.5,175.8,844.6,177.2,844.6,178.8z"/>
		<path class="st2" d="M999.1,106.7c0,13.6-1.7,25.4-5.2,35.6c-3.5,10.1-8.5,18.5-15.2,25.2c-6.7,6.7-14.8,11.7-24.5,15
			c-9.7,3.3-21.2,5-34.7,5h-33.2c-1.9,0-3.6-0.6-5.3-1.9c-1.7-1.3-2.5-3.5-2.5-6.6V39.1c0-3.2,0.8-5.4,2.5-6.6
			c1.7-1.3,3.4-1.9,5.3-1.9h35.5c13.6,0,25,1.8,34.4,5.3c9.4,3.5,17.2,8.6,23.6,15.1c6.3,6.6,11.1,14.6,14.4,23.9
			C997.4,84.3,999.1,94.9,999.1,106.7z M977.1,107.5c0-8.5-1.1-16.4-3.2-23.7c-2.1-7.3-5.4-13.6-9.9-19c-4.5-5.3-10.2-9.5-17-12.5
			c-6.9-3-15.7-4.5-26.5-4.5h-21.2v122h21.4c10,0,18.5-1.3,25.3-3.8c6.9-2.5,12.6-6.3,17.2-11.5c4.6-5.2,8.1-11.7,10.4-19.4
			C976,127.4,977.1,118.2,977.1,107.5z"/>
	</g>
</g>
<line class="st3" x1="18" y1="63" x2="18" y2="100"/>
<line class="st3" x1="34.7" y1="119.3" x2="65.4" y2="140.8"/>
<line class="st3" x1="73.7" y1="146.2" x2="105.2" y2="166.4"/>
<line class="st3" x1="113" y1="172.4" x2="144.6" y2="192.7"/>
</svg>
